<svg width="24" height="24" viewBox="0 0 24 24" fill="none" xmlns="http://www.w3.org/2000/svg">
<rect width="24" height="24" rx="4" fill="black"/>
<path d="M15.6743 5.41382V6.35135M15.6743 6.35135C16.1402 6.35135 16.5619 6.54015 16.8673 6.84541M15.6743 6.35135C15.2085 6.35135 14.7867 6.54015 14.4814 6.84541M16.8673 6.84541C17.1726 7.15074 17.3615 7.57258 17.3615 8.03853M16.8673 6.84541L17.5302 6.18252M14.4814 6.84541C14.176 7.15074 13.9871 7.57258 13.9871 8.03853M14.4814 6.84541L13.8185 6.18252M15.6743 9.72573V10.6629M15.6743 9.72573C16.1403 9.72573 16.5621 9.53684 16.8675 9.23146M15.6743 9.72573C15.2083 9.72573 14.7865 9.53684 14.4812 9.23146M16.8675 9.23146C17.1727 8.92615 17.3615 8.50439 17.3615 8.03853M16.8675 9.23146L17.5302 9.89415M14.4812 9.23146C14.176 8.92615 13.9871 8.50439 13.9871 8.03853M14.4812 9.23146L13.8185 9.89415M18.2988 8.03834L17.3615 8.03853M13.9871 8.03853L13.0498 8.03834" stroke="white" stroke-linecap="round" stroke-linejoin="round"/>
<path d="M13.183 16.9314C13.0498 16.6099 13.0498 16.2023 13.0498 15.387C13.0498 14.5717 13.0498 14.1641 13.183 13.8426C13.3605 13.4138 13.7012 13.0732 14.1299 12.8956C14.4514 12.7625 14.859 12.7625 15.6743 12.7625C16.4896 12.7625 16.8972 12.7625 17.2187 12.8956C17.6475 13.0732 17.9881 13.4138 18.1657 13.8426C18.2988 14.1641 18.2988 14.5717 18.2988 15.387C18.2988 16.2023 18.2988 16.6099 18.1657 16.9314C17.9881 17.3601 17.6475 17.7007 17.2187 17.8783C16.8972 18.0115 16.4896 18.0115 15.6743 18.0115C14.859 18.0115 14.4514 18.0115 14.1299 17.8783C13.7012 17.7007 13.3605 17.3601 13.183 16.9314Z" stroke="white" stroke-linecap="round" stroke-linejoin="round"/>
<path d="M5.83436 16.9314C5.70117 16.6099 5.70117 16.2023 5.70117 15.387C5.70117 14.5717 5.70117 14.1641 5.83436 13.8426C6.01194 13.4138 6.35256 13.0732 6.78128 12.8956C7.10282 12.7625 7.51045 12.7625 8.32569 12.7625C9.14094 12.7625 9.54856 12.7625 9.87011 12.8956C10.2988 13.0732 10.6395 13.4138 10.817 13.8426C10.9502 14.1641 10.9502 14.5717 10.9502 15.387C10.9502 16.2023 10.9502 16.6099 10.817 16.9314C10.6395 17.3601 10.2988 17.7007 9.87011 17.8783C9.54856 18.0115 9.14094 18.0115 8.32569 18.0115C7.51045 18.0115 7.10282 18.0115 6.78128 17.8783C6.35256 17.7007 6.01194 17.3601 5.83436 16.9314Z" stroke="white" stroke-linecap="round" stroke-linejoin="round"/>
<path d="M5.83436 9.58275C5.70117 9.26121 5.70117 8.85358 5.70117 8.03834C5.70117 7.22309 5.70117 6.81547 5.83436 6.49392C6.01194 6.0652 6.35256 5.72459 6.78128 5.547C7.10282 5.41382 7.51045 5.41382 8.32569 5.41382C9.14094 5.41382 9.54856 5.41382 9.87011 5.547C10.2988 5.72459 10.6395 6.0652 10.817 6.49392C10.9502 6.81547 10.9502 7.22309 10.9502 8.03834C10.9502 8.85358 10.9502 9.26121 10.817 9.58275C10.6395 10.0115 10.2988 10.3521 9.87011 10.5297C9.54856 10.6629 9.14094 10.6629 8.32569 10.6629C7.51045 10.6629 7.10282 10.6629 6.78128 10.5297C6.35256 10.3521 6.01194 10.0115 5.83436 9.58275Z" stroke="white" stroke-linecap="round" stroke-linejoin="round"/>
</svg>
